PathFileType	4	(X/Y/Z)	C:/Users/opensim2020/Desktop/walking_exp_matlab/subject03_walking04_static.trc																																																																																																																																																							
DataRate	CameraRate	NumFrames	NumMarkers	Units	OrigDataRate	OrigDataStartFrame	OrigNumFrames																																																																																																																																																			
100	100	7	51	mm	100	305	196																																																																																																																																																			
Frame#	Time	LFHD			RFHD			LBHD			RBHD			C7			T10			CLAV			STRN			RBAK			LSHO			LUPA			LELB			LFRM			LWRA			LWRB			LFIN			RSHO			RUPA			RELB			RFRM			RWRA			RWRB			RFIN			LASI			RASI			LPSI			RPSI			LTHI			LKNE			LTIB			LANK			LHEE			LTOE			RTHI			RKNE			RTIB			RANK			RHEE			RTOE			*39			*40			*41			*42			*43			*44			*45			*46			*47			*48			*49			*50		
		X1	Y1	Z1	X2	Y2	Z2	X3	Y3	Z3	X4	Y4	Z4	X5	Y5	Z5	X6	Y6	Z6	X7	Y7	Z7	X8	Y8	Z8	X9	Y9	Z9	X10	Y10	Z10	X11	Y11	Z11	X12	Y12	Z12	X13	Y13	Z13	X14	Y14	Z14	X15	Y15	Z15	X16	Y16	Z16	X17	Y17	Z17	X18	Y18	Z18	X19	Y19	Z19	X20	Y20	Z20	X21	Y21	Z21	X22	Y22	Z22	X23	Y23	Z23	X24	Y24	Z24	X25	Y25	Z25	X26	Y26	Z26	X27	Y27	Z27	X28	Y28	Z28	X29	Y29	Z29	X30	Y30	Z30	X31	Y31	Z31	X32	Y32	Z32	X33	Y33	Z33	X34	Y34	Z34	X35	Y35	Z35	X36	Y36	Z36	X37	Y37	Z37	X38	Y38	Z38	X39	Y39	Z39	X40	Y40	Z40	X41	Y41	Z41	X42	Y42	Z42	X43	Y43	Z43	X44	Y44	Z44	X45	Y45	Z45	X46	Y46	Z46	X47	Y47	Z47	X48	Y48	Z48	X49	Y49	Z49	X50	Y50	Z50	X51	Y51	Z51
																																																																																																																																																										
123	1.22	-342.30811	1629.81201	-678.19922	-372.95938	1644.61243	-549.02924	-469.96838	1588.22681	-698.90179	-495.45999	1603.12231	-571.19904	-511.11288	1425.59363	-630.35718	-528.82983	1114.18652	-619.67737	-383.16171	1361.43652	-611.70221	-328.39532	1197.69482	-608.32086	-563.67023	1247.23438	-539.28168	-428.7944	1395.68701	-772.65271	-440.94519	1205.12024	-855.40405	-436.27454	1085.00171	-882.14197	-403.20508	959.95062	-899.56378	-369.09061	842.8559	-886.56049	-403.8237	848.909	-930.19305	-378.94406	767.43604	-931.57605	-466.69565	1389.51465	-464.36285	-475.38177	1179.646	-367.96808	-460.49664	1072.5957	-333.21887	-439.59805	939.73486	-303.84225	-396.6647	843.77533	-312.83997	-439.30756	841.7998	-278.9415	-411.63583	771.55469	-272.48108	-371.90869	944.96442	-720.48657	-387.58167	946.21771	-487.0329	-536.48456	979.13745	-683.60608	-543.2146	987.40222	-534.2525	-444.93668	646.3103	-772.92065	-456.33618	468.95148	-735.95166	-515.09076	285.44699	-755.03754	-539.09485	73.9948	-729.93091	-580.75159	37.03428	-697.06958	-386.95926	34.32801	-709.13861	-464.64325	653.72522	-441.51205	-461.46283	473.92999	-474.73306	-516.70673	293.22357	-463.09671	-546.97675	76.68736	-501.58969	-587.32153	42.36778	-553.23248	-404.84549	36.41372	-500.50211	-432.20773	1696.78613	-652.77997	NaN	NaN	NaN	NaN	NaN	NaN	NaN	NaN	NaN	NaN	NaN	NaN	NaN	NaN	NaN	NaN	NaN	NaN	NaN	NaN	NaN	NaN	NaN	NaN	NaN	NaN	NaN	NaN	NaN	NaN	NaN	NaN	NaN
124	1.23	-342.10318	1629.77087	-678.4259	-372.74689	1644.6405	-549.27863	-469.7562	1588.13062	-699.07983	-495.21921	1603.1156	-571.37384	-510.85635	1425.55151	-630.49243	-528.60535	1114.16992	-619.79456	-382.94376	1361.40515	-611.82483	-328.13065	1197.67419	-608.38995	-563.42645	1247.22729	-539.38464	-428.52005	1395.6449	-772.77136	-440.6449	1205.08948	-855.54822	-435.89471	1084.93127	-882.19513	-402.71091	959.9201	-899.61646	-368.48483	842.81177	-886.58234	-403.17926	848.88275	-930.21619	-378.22125	767.44922	-931.59082	-466.46762	1389.53125	-464.49359	-475.15649	1179.66614	-368.07919	-460.30478	1072.64099	-333.32541	-439.45786	939.72968	-303.95532	-396.51099	843.76544	-312.93814	-439.19208	841.82526	-279.04068	-411.50427	771.50897	-272.54291	-371.79727	944.87268	-720.50732	-387.40448	946.18842	-487.10104	-536.14734	979.20007	-683.62665	-542.99384	987.43353	-534.3418	-444.70166	646.29468	-772.9718	-456.19385	468.93964	-736.0672	-515.02209	285.44958	-755.07306	-539.06976	73.95519	-729.91266	-580.72681	37.00311	-697.07391	-386.94736	34.34381	-709.1665	-464.56454	653.70203	-441.55515	-461.38278	473.91309	-474.78448	-516.67737	293.21524	-463.14395	-546.93372	76.69263	-501.57413	-587.30859	42.35019	-553.22607	-404.83899	36.41503	-500.50067	-432.0062	1696.73401	-653.0285	NaN	NaN	NaN	NaN	NaN	NaN	NaN	NaN	NaN	NaN	NaN	NaN	NaN	NaN	NaN	NaN	NaN	NaN	NaN	NaN	NaN	NaN	NaN	NaN	NaN	NaN	NaN	NaN	NaN	NaN	NaN	NaN	NaN
125	1.24	-341.87131	1629.72339	-678.59949	-372.49979	1644.64099	-549.46295	-469.53256	1588.06274	-699.2597	-494.95242	1603.09827	-571.56268	-510.59998	1425.53455	-630.61707	-528.3847	1114.14575	-619.88776	-382.68561	1361.39551	-611.93958	-327.87872	1197.65149	-608.42548	-563.16168	1247.24719	-539.51648	-428.23907	1395.59753	-772.87659	-440.31461	1205.01001	-855.60345	-435.58871	1084.89612	-882.26471	-402.28152	959.89594	-899.66394	-367.96967	842.83209	-886.58081	-402.69196	848.79224	-930.17981	-377.63965	767.44751	-931.75696	-466.21249	1389.54382	-464.57602	-474.92014	1179.66931	-368.1709	-460.11008	1072.62622	-333.41135	-439.28088	939.7049	-304.04019	-396.39407	843.75684	-313.02725	-439.02481	841.79852	-279.12601	-411.40833	771.55048	-272.60287	-371.54877	944.84357	-720.58484	-387.2023	946.1994	-487.1698	-535.79688	979.19055	-683.58984	-542.79242	987.45599	-534.45178	-444.50299	646.26697	-772.99939	-456.10938	468.91653	-736.09387	-514.96558	285.45599	-755.10992	-539.06781	73.99283	-729.93634	-580.74939	37.02864	-697.0993	-386.9361	34.37106	-709.16827	-464.41794	653.66296	-441.6366	-461.32059	473.91525	-474.80673	-516.64948	293.21652	-463.18082	-546.95435	76.74617	-501.62302	-587.18182	42.26691	-553.00842	-404.83102	36.4132	-500.51157	-431.78769	1696.68945	-653.26538	NaN	NaN	NaN	NaN	NaN	NaN	NaN	NaN	NaN	NaN	NaN	NaN	NaN	NaN	NaN	NaN	NaN	NaN	NaN	NaN	NaN	NaN	NaN	NaN	NaN	NaN	NaN	NaN	NaN	NaN	NaN	NaN	NaN
126	1.25	-341.65048	1629.68982	-678.80859	-372.2139	1644.69458	-549.64545	-469.27441	1587.9978	-699.42059	-494.70535	1603.06201	-571.76038	-510.32739	1425.49927	-630.69031	-528.15845	1114.1488	-619.97504	-382.40353	1361.39709	-611.98944	-327.61725	1197.62329	-608.53094	-562.90576	1247.229	-539.57806	-427.99832	1395.5603	-772.94867	-439.97519	1204.9812	-855.71667	-435.1683	1084.81934	-882.34937	-401.82944	959.8595	-899.70959	-367.30566	842.8418	-886.64197	-402.26266	848.76691	-930.11615	-377.05493	767.44116	-931.74548	-465.95126	1389.54504	-464.67722	-474.68207	1179.66748	-368.26907	-459.86719	1072.59534	-333.49423	-439.09531	939.71332	-304.11667	-396.18423	843.76599	-313.08337	-438.89832	841.78027	-279.23309	-411.27332	771.44946	-272.67093	-371.65851	944.70013	-720.53998	-387.04291	946.18756	-487.23972	-535.58466	979.18304	-683.64044	-542.56342	987.45953	-534.52313	-444.36505	646.22333	-773.0144	-456.02975	468.95432	-736.12006	-514.91254	285.43829	-755.10669	-539.08002	73.99521	-729.89557	-580.755	37.02002	-697.05634	-386.95642	34.36306	-709.15991	-464.27487	653.65759	-441.67792	-461.20737	473.91263	-474.83902	-516.57428	293.23459	-463.18848	-546.8064	76.73788	-501.79242	-587.29694	42.35571	-553.26117	-404.85477	36.42676	-500.50864	-431.54657	1696.63025	-653.54364	NaN	NaN	NaN	NaN	NaN	NaN	NaN	NaN	NaN	NaN	NaN	NaN	NaN	NaN	NaN	NaN	NaN	NaN	NaN	NaN	NaN	NaN	NaN	NaN	NaN	NaN	NaN	NaN	NaN	NaN	NaN	NaN	NaN
127	1.26	-341.3912	1629.65735	-678.98956	-371.94617	1644.68921	-549.87958	-469.01611	1587.96399	-699.60925	-494.40845	1603.06494	-571.91223	-510.06964	1425.4679	-630.76447	-527.87848	1114.09509	-619.98639	-382.13043	1361.38147	-612.08325	-327.35898	1197.6073	-608.61285	-562.62854	1247.22278	-539.6778	-427.74881	1395.5304	-773.05237	-439.65045	1204.9635	-855.8252	-434.81851	1084.78308	-882.43713	-401.38736	959.84729	-899.78961	-366.7218	842.76721	-886.5979	-401.74319	848.71802	-930.14172	-376.41467	767.42285	-931.55951	-465.69565	1389.53748	-464.7677	-474.45435	1179.66504	-368.36859	-459.64987	1072.59229	-333.595	-438.91501	939.70435	-304.2092	-396.04568	843.74127	-313.19684	-438.72739	841.76196	-279.32101	-411.10159	771.39996	-272.75049	-371.69	944.56512	-720.53876	-386.85992	946.14948	-487.31378	-535.38251	979.08374	-683.66449	-542.33881	987.46472	-534.62555	-444.20319	646.18549	-773.06934	-455.92917	468.94931	-736.14252	-514.8551	285.43491	-755.12854	-539.06818	73.97156	-729.84869	-580.75079	37.02239	-697.0838	-386.94296	34.36162	-709.14508	-464.16187	653.65991	-441.74225	-461.12189	473.9126	-474.88147	-516.52869	293.22314	-463.24219	-546.96747	76.78929	-501.64111	-587.18353	42.24849	-553.01398	-404.83871	36.42283	-500.54178	-431.30563	1696.58606	-653.71808	NaN	NaN	NaN	NaN	NaN	NaN	NaN	NaN	NaN	NaN	NaN	NaN	NaN	NaN	NaN	NaN	NaN	NaN	NaN	NaN	NaN	NaN	NaN	NaN	NaN	NaN	NaN	NaN	NaN	NaN	NaN	NaN	NaN
128	1.27	-341.11859	1629.62	-679.20508	-371.65732	1644.68555	-550.07611	-468.75009	1587.92371	-699.75232	-494.13495	1603.09631	-572.09033	-509.80746	1425.44946	-630.84869	-527.63672	1114.10107	-620.08691	-381.8624	1361.33472	-612.19507	-327.07074	1197.56201	-608.67462	-562.39679	1247.25879	-539.75952	-427.48438	1395.48853	-773.14545	-439.30209	1204.90796	-855.88263	-434.39285	1084.7301	-882.42944	-400.91696	959.79285	-899.83099	-366.28796	842.80292	-886.61731	-401.11954	848.71399	-930.27417	-375.92169	767.40845	-931.79279	-465.39883	1389.50427	-464.86752	-474.21463	1179.65979	-368.46399	-459.39359	1072.5929	-333.67712	-438.71481	939.65643	-304.33554	-395.87369	843.71637	-313.30057	-438.55371	841.75195	-279.4761	-410.98654	771.43634	-272.86966	-371.45193	944.55255	-720.63519	-386.66452	946.12103	-487.39243	-535.18506	979.10059	-683.78967	-542.14758	987.47064	-534.70923	-444.20184	646.13568	-773.21094	-455.87036	468.99811	-736.27704	-514.81464	285.42126	-755.12585	-539.05078	73.98169	-729.94745	-580.73621	37.0219	-697.09381	-386.94418	34.35945	-709.18506	-464.02515	653.66754	-441.80048	-460.99695	473.94669	-474.88547	-516.47272	293.2446	-463.26718	-546.80927	76.78568	-501.86972	-587.2851	42.36579	-553.26501	-404.81265	36.42807	-500.52985	-431.03915	1696.55249	-653.91266	NaN	NaN	NaN	NaN	NaN	NaN	NaN	NaN	NaN	NaN	NaN	NaN	NaN	NaN	NaN	NaN	NaN	NaN	NaN	NaN	NaN	NaN	NaN	NaN	NaN	NaN	NaN	NaN	NaN	NaN	NaN	NaN	NaN
129	1.28	-340.85654	1629.57397	-679.39972	-371.33081	1644.71387	-550.25909	-468.47867	1587.88904	-699.84448	-493.87424	1603.0968	-572.22766	-509.53116	1425.42126	-630.92053	-527.3866	1114.05603	-620.11633	-381.62357	1361.32715	-612.2796	-326.82217	1197.54761	-608.75757	-562.14667	1247.21851	-539.76343	-427.20499	1395.4541	-773.20313	-438.9801	1204.85657	-855.96326	-434.03806	1084.69348	-882.55408	-400.49503	959.77472	-899.86743	-365.72351	842.79614	-886.65631	-400.60898	848.6557	-930.28003	-375.38406	767.36877	-931.83423	-465.02298	1389.48901	-464.90005	-473.90732	1179.61719	-368.55182	-459.1387	1072.54309	-333.7576	-438.49094	939.62189	-304.40759	-395.64374	843.599	-313.36496	-438.34991	841.74066	-279.50729	-410.86588	771.40387	-272.94614	-371.25562	944.50531	-720.70032	-386.43201	946.08771	-487.49344	-534.9574	979.13037	-683.8291	-541.93121	987.46704	-534.75195	-443.98599	646.13849	-773.1369	-455.78171	468.95248	-736.3175	-514.78625	285.41614	-755.15765	-539.05798	73.97496	-729.82782	-580.7359	37.01664	-697.04907	-386.9498	34.35049	-709.15454	-463.8457	653.67358	-441.80396	-460.85049	473.90915	-474.93765	-516.38959	293.28192	-463.27121	-546.74371	76.7319	-501.754	-587.17993	42.28096	-553.00098	-404.83896	36.43053	-500.52756	-430.76202	1696.57324	-654.10071	NaN	NaN	NaN	NaN	NaN	NaN	NaN	NaN	NaN	NaN	NaN	NaN	NaN	NaN	NaN	NaN	NaN	NaN	NaN	NaN	NaN	NaN	NaN	NaN	NaN	NaN	NaN	NaN	NaN	NaN	NaN	NaN	NaN
